<svg width="90" height="90" viewBox="0 0 90 90" fill="none" xmlns="http://www.w3.org/2000/svg">
<g clip-path="url(#clip0_492_66)">
<path d="M58.569 41.55C54.1179 41.55 53.5018 45.9858 53.5018 45.9858H62.9585C62.9585 45.9858 63.0201 41.55 58.569 41.55ZM37.1143 45.9858H28.7357V53.6867H36.6984C37.8998 53.6559 40.1484 53.317 40.1484 49.944C40.1484 45.9396 37.1143 45.9858 37.1143 45.9858Z" fill="white"/>
<path d="M45 10.5C25.948 10.5 10.5 25.948 10.5 45C10.5 64.052 25.948 79.5 45 79.5C64.052 79.5 79.5 64.052 79.5 45C79.5 25.948 64.052 10.5 45 10.5ZM52.2696 31.6928H64.1444V35.2352H52.2696V31.6928ZM46.2629 50.2982C46.2629 59.0772 37.1143 58.8 37.1143 58.8H22.1437V29.9986H37.1143C41.6732 29.9986 45.2618 32.5091 45.2618 37.6687C45.2618 42.8283 40.8723 43.1518 40.8723 43.1518C46.6634 43.1518 46.2629 50.2982 46.2629 50.2982ZM68.4723 49.8207H53.548C53.548 55.1651 58.6152 54.8263 58.6152 54.8263C63.4051 54.8263 63.2357 51.7305 63.2357 51.7305H68.3029C68.3029 59.9551 58.4458 59.3852 58.4458 59.3852C46.6326 59.3852 47.3873 48.373 47.3873 48.373C47.3873 48.373 47.3719 37.3145 58.4458 37.3145C70.1049 37.3299 68.4723 49.8207 68.4723 49.8207Z" fill="white"/>
<path d="M39.1473 38.1154C39.1473 35.1275 37.1143 35.1275 37.1143 35.1275H28.7357V41.55H36.5906C37.946 41.55 39.1473 41.1034 39.1473 38.1154Z" fill="white"/>
</g>
<defs>
<clipPath id="clip0_492_66">
<rect width="90" height="90" fill="white"/>
</clipPath>
</defs>
</svg>
