<svg width="90" height="90" viewBox="0 0 90 90" fill="none" xmlns="http://www.w3.org/2000/svg">
<g clip-path="url(#clip0_492_63)">
<path d="M45 10.5C25.9526 10.5 10.5 25.9526 10.5 45C10.5 64.0474 25.9526 79.5 45 79.5C64.0474 79.5 79.5 64.0643 79.5 45C79.5 25.9357 64.0474 10.5 45 10.5ZM66.9044 26.4023C70.8963 31.095 73.2723 36.9475 73.6812 43.0948C67.4635 42.7714 60.0244 42.7714 54.0593 43.3289C53.3046 41.4237 52.5315 39.5555 51.6875 37.7581C58.5659 34.7763 63.8672 30.8581 66.9044 26.4023ZM45 16.2495C51.7012 16.238 58.194 18.5785 63.3466 22.863C60.22 26.8151 55.3146 30.2559 49.2047 32.8526C45.8625 26.6719 42.0167 21.3536 37.9152 17.1659C40.2298 16.5684 42.6096 16.2606 45 16.2495ZM31.9901 19.3945C36.1409 23.5268 40.0406 28.7896 43.4552 34.9503C36.968 36.9325 29.5289 38.0692 21.5893 38.0692C20.0799 38.0692 18.6075 38.0153 17.152 37.9244C18.1645 33.9579 20.0118 30.2531 22.5706 27.0576C25.1294 23.8621 28.3408 21.2496 31.9901 19.3945ZM16.3034 43.6339C17.9391 43.7062 19.5917 43.7417 21.2628 43.7247C30.319 43.6169 38.7469 42.1969 45.9888 39.8743C46.6716 41.2943 47.3185 42.7498 47.9294 44.2407C47.0544 44.4323 46.1951 44.6897 45.3589 45.0108C35.4586 49.1693 27.6607 55.8706 23.4375 63.975C18.8067 58.7388 16.2502 51.9901 16.2495 45C16.2495 44.5379 16.268 44.0836 16.3034 43.6339ZM45 73.7505C38.6126 73.7583 32.4067 71.6262 27.3727 67.6945C31.2 60.1122 38.0276 53.8329 46.6357 49.9409C47.4443 49.5635 48.5224 49.2586 49.7622 48.9891C50.789 51.8271 51.7054 54.774 52.5114 57.8297C53.7153 62.4417 54.6019 67.1307 55.1652 71.8638C51.9201 73.1071 48.4751 73.7465 45 73.7505ZM60.5435 69.1685C59.9813 64.3862 59.0863 59.6489 57.8651 54.9911C57.249 52.6547 56.5544 50.3906 55.7997 48.1805C61.4414 47.7184 68.1982 47.7846 73.5703 48.1805C73.0969 52.4275 71.6818 56.5155 69.4282 60.1463C67.1746 63.7772 64.1393 66.8594 60.5435 69.1685Z" fill="#FFABE7"/>
</g>
<defs>
<clipPath id="clip0_492_63">
<rect width="90" height="90" fill="white"/>
</clipPath>
</defs>
</svg>
