<svg width="90" height="90" viewBox="0 0 90 90" fill="none" xmlns="http://www.w3.org/2000/svg">
<path d="M83.4001 21.135C80.5741 22.3881 77.5375 23.235 74.3503 23.616C77.6038 21.666 80.1019 18.5781 81.2782 14.8989C78.1854 16.7343 74.8015 18.0274 71.2729 18.7224C68.3986 15.6603 64.3039 13.7466 59.7718 13.7466C51.07 13.7466 44.0149 20.8014 44.0149 29.5026C44.0149 30.7377 44.1544 31.9401 44.4229 33.0936C31.3279 32.4363 19.7179 26.1636 11.9464 16.6308C10.5904 18.9579 9.8134 21.6648 9.8134 24.552C9.8134 30.0186 12.5953 34.8411 16.8229 37.6668C14.3207 37.5884 11.8736 36.9126 9.6859 35.6958C9.685 35.7618 9.685 35.8278 9.685 35.8941C9.685 43.5282 15.1162 49.8966 22.324 51.3441C20.0038 51.9751 17.57 52.0675 15.2086 51.6141C17.2135 57.8739 23.0326 62.4291 29.9272 62.5566C24.5347 66.7824 17.7406 69.3015 10.3588 69.3015C9.0868 69.3015 7.8328 69.2268 6.6001 69.0813C13.573 73.5519 21.8551 76.1604 30.7531 76.1604C59.7352 76.1604 75.5833 52.1511 75.5833 31.3299C75.5833 30.6465 75.5683 29.967 75.5377 29.2914C78.6224 27.0615 81.2849 24.2995 83.4001 21.135Z" fill="white"/>
</svg>
