<svg width="38" height="38" viewBox="0 0 38 38" fill="none" xmlns="http://www.w3.org/2000/svg">
<path d="M15.4375 4.75H20.3916C21.0213 4.7501 21.6251 5.00024 22.0704 5.44543L32.5546 15.9296C32.9998 16.3749 33.2499 16.9787 33.25 17.6084V32.0625C33.25 33.0073 32.8747 33.9135 32.2066 34.5816C31.5385 35.2497 30.6323 35.625 29.6875 35.625H14.25C13.3052 35.625 12.399 35.2497 11.7309 34.5816C11.0628 33.9135 10.6875 33.0073 10.6875 32.0625V22.5625" stroke="black" stroke-width="2" stroke-linecap="round" stroke-linejoin="round"/>
<path d="M21.375 5.34375V14.25C21.375 14.8799 21.6252 15.484 22.0706 15.9294C22.516 16.3748 23.1201 16.625 23.75 16.625H32.6562" stroke="black" stroke-width="2" stroke-linecap="round" stroke-linejoin="round"/>
<path d="M11.875 5.9375V17.2188C11.8781 17.4535 11.8341 17.6865 11.7457 17.904C11.6573 18.1216 11.5262 18.3192 11.3602 18.4852C11.1942 18.6512 10.9966 18.7823 10.779 18.8707C10.5615 18.9591 10.3285 19.0031 10.0938 19C9.20312 19 8.3125 18.3246 8.3125 17.2188V6.53125C8.3125 4.2609 9.5423 2.375 11.875 2.375C14.2077 2.375 15.4375 4.21562 15.4375 6.48523V16.7831C15.4375 19.9745 13.3727 22.5625 10.0938 22.5625C6.81477 22.5625 4.75 19.9752 4.75 16.7831V10.6875" stroke="black" stroke-width="2" stroke-miterlimit="10" stroke-linecap="round"/>
</svg>
