<svg width="90" height="90" viewBox="0 0 90 90" fill="none" xmlns="http://www.w3.org/2000/svg">
<path d="M12.6138 72.7639H24.5455V43.7866L7.5 31.0025V67.6504C7.5 70.4756 9.78838 72.7642 12.6138 72.7642V72.7639Z" fill="white"/>
<path d="M65.4545 72.7639H77.3864C80.2116 72.7639 82.5 70.4755 82.5 67.6503V31.0025L65.4545 43.7866V72.7639Z" fill="white"/>
<path d="M65.4545 21.6274V43.7866L82.5 31.0024V24.1843C82.5 17.8647 75.2856 14.2553 70.2272 18.0479L65.4545 21.6274Z" fill="white"/>
<path fill-rule="evenodd" clip-rule="evenodd" d="M24.5455 43.7865V21.6274L45 36.9684L65.4545 21.6274V43.7865L45 59.1274L24.5455 43.7865Z" fill="white"/>
<path d="M7.5 24.1843V31.0024L24.5455 43.7865V21.6274L19.7728 18.0479C14.7144 14.2553 7.5 17.8646 7.5 24.184V24.1843Z" fill="white"/>
</svg>
